<svg id="visual" viewBox="0 0 960 540" width="960" height="540" xmlns="http://www.w3.org/2000/svg" xmlns:xlink="http://www.w3.org/1999/xlink" version="1.1"><rect x="0" y="0" width="960" height="540" fill="#001220"></rect><defs><linearGradient id="grad1_0" x1="43.8%" y1="0%" x2="100%" y2="100%"><stop offset="14.444444444444446%" stop-color="#fbae3c" stop-opacity="1"></stop><stop offset="85.55555555555554%" stop-color="#fbae3c" stop-opacity="1"></stop></linearGradient></defs><defs><linearGradient id="grad1_1" x1="43.8%" y1="0%" x2="100%" y2="100%"><stop offset="14.444444444444446%" stop-color="#fbae3c" stop-opacity="1"></stop><stop offset="85.55555555555554%" stop-color="#eb7458" stop-opacity="1"></stop></linearGradient></defs><defs><linearGradient id="grad1_2" x1="43.8%" y1="0%" x2="100%" y2="100%"><stop offset="14.444444444444446%" stop-color="#b84e6c" stop-opacity="1"></stop><stop offset="85.55555555555554%" stop-color="#eb7458" stop-opacity="1"></stop></linearGradient></defs><defs><linearGradient id="grad1_3" x1="43.8%" y1="0%" x2="100%" y2="100%"><stop offset="14.444444444444446%" stop-color="#b84e6c" stop-opacity="1"></stop><stop offset="85.55555555555554%" stop-color="#713c69" stop-opacity="1"></stop></linearGradient></defs><defs><linearGradient id="grad1_4" x1="43.8%" y1="0%" x2="100%" y2="100%"><stop offset="14.444444444444446%" stop-color="#2d2b4c" stop-opacity="1"></stop><stop offset="85.55555555555554%" stop-color="#713c69" stop-opacity="1"></stop></linearGradient></defs><defs><linearGradient id="grad1_5" x1="43.8%" y1="0%" x2="100%" y2="100%"><stop offset="14.444444444444446%" stop-color="#2d2b4c" stop-opacity="1"></stop><stop offset="85.55555555555554%" stop-color="#001220" stop-opacity="1"></stop></linearGradient></defs><defs><linearGradient id="grad2_0" x1="0%" y1="0%" x2="56.3%" y2="100%"><stop offset="14.444444444444446%" stop-color="#fbae3c" stop-opacity="1"></stop><stop offset="85.55555555555554%" stop-color="#fbae3c" stop-opacity="1"></stop></linearGradient></defs><defs><linearGradient id="grad2_1" x1="0%" y1="0%" x2="56.3%" y2="100%"><stop offset="14.444444444444446%" stop-color="#eb7458" stop-opacity="1"></stop><stop offset="85.55555555555554%" stop-color="#fbae3c" stop-opacity="1"></stop></linearGradient></defs><defs><linearGradient id="grad2_2" x1="0%" y1="0%" x2="56.3%" y2="100%"><stop offset="14.444444444444446%" stop-color="#eb7458" stop-opacity="1"></stop><stop offset="85.55555555555554%" stop-color="#b84e6c" stop-opacity="1"></stop></linearGradient></defs><defs><linearGradient id="grad2_3" x1="0%" y1="0%" x2="56.3%" y2="100%"><stop offset="14.444444444444446%" stop-color="#713c69" stop-opacity="1"></stop><stop offset="85.55555555555554%" stop-color="#b84e6c" stop-opacity="1"></stop></linearGradient></defs><defs><linearGradient id="grad2_4" x1="0%" y1="0%" x2="56.3%" y2="100%"><stop offset="14.444444444444446%" stop-color="#713c69" stop-opacity="1"></stop><stop offset="85.55555555555554%" stop-color="#2d2b4c" stop-opacity="1"></stop></linearGradient></defs><defs><linearGradient id="grad2_5" x1="0%" y1="0%" x2="56.3%" y2="100%"><stop offset="14.444444444444446%" stop-color="#001220" stop-opacity="1"></stop><stop offset="85.55555555555554%" stop-color="#2d2b4c" stop-opacity="1"></stop></linearGradient></defs><g transform="translate(960, 0)"><path d="M0 351C-29 337.1 -58 323.2 -82.8 309.1C-107.6 295 -128.2 280.8 -158 273.7C-187.8 266.5 -226.9 266.4 -248.2 248.2C-269.5 230 -273 193.6 -285.8 165C-298.6 136.4 -320.8 115.5 -333.2 89.3C-345.7 63.1 -348.3 31.5 -351 0L0 0Z" fill="#131f37"></path><path d="M0 292.5C-24.2 280.9 -48.4 269.3 -69 257.6C-89.7 245.9 -106.8 234 -131.7 228.1C-156.5 222.1 -189.1 222 -206.8 206.8C-224.6 191.6 -227.5 161.3 -238.2 137.5C-248.9 113.7 -267.3 96.3 -277.7 74.4C-288.1 52.6 -290.3 26.3 -292.5 0L0 0Z" fill="#4d345e"></path><path d="M0 234C-19.3 224.7 -38.7 215.4 -55.2 206.1C-71.7 196.7 -85.4 187.2 -105.3 182.4C-125.2 177.7 -151.3 177.6 -165.5 165.5C-179.7 153.3 -182 129.1 -190.5 110C-199.1 90.9 -213.9 77 -222.2 59.5C-230.4 42.1 -232.2 21 -234 0L0 0Z" fill="#96446e"></path><path d="M0 175.5C-14.5 168.5 -29 161.6 -41.4 154.5C-53.8 147.5 -64.1 140.4 -79 136.8C-93.9 133.3 -113.5 133.2 -124.1 124.1C-134.7 115 -136.5 96.8 -142.9 82.5C-149.3 68.2 -160.4 57.8 -166.6 44.6C-172.8 31.5 -174.2 15.8 -175.5 0L0 0Z" fill="#d55e64"></path><path d="M0 117C-9.7 112.4 -19.3 107.7 -27.6 103C-35.9 98.3 -42.7 93.6 -52.7 91.2C-62.6 88.8 -75.6 88.8 -82.7 82.7C-89.8 76.7 -91 64.5 -95.3 55C-99.5 45.5 -106.9 38.5 -111.1 29.8C-115.2 21 -116.1 10.5 -117 0L0 0Z" fill="#f88f4a"></path><path d="M0 58.5C-4.8 56.2 -9.7 53.9 -13.8 51.5C-17.9 49.2 -21.4 46.8 -26.3 45.6C-31.3 44.4 -37.8 44.4 -41.4 41.4C-44.9 38.3 -45.5 32.3 -47.6 27.5C-49.8 22.7 -53.5 19.3 -55.5 14.9C-57.6 10.5 -58.1 5.3 -58.5 0L0 0Z" fill="#fbae3c"></path></g><g transform="translate(0, 540)"><path d="M0 -351C32.2 -349 64.3 -347.1 88.8 -331.3C113.2 -315.5 129.9 -285.9 157.5 -272.8C185.1 -259.7 223.6 -263 248.2 -248.2C272.8 -233.4 283.6 -200.4 297 -171.5C310.5 -142.6 326.7 -118 336.1 -90.1C345.6 -62.2 348.3 -31.1 351 0L0 0Z" fill="#131f37"></path><path d="M0 -292.5C26.8 -290.9 53.6 -289.2 74 -276.1C94.3 -262.9 108.3 -238.3 131.2 -227.3C154.2 -216.4 186.3 -219.2 206.8 -206.8C227.3 -194.5 236.3 -167 247.5 -142.9C258.8 -118.9 272.2 -98.3 280.1 -75.1C288 -51.8 290.2 -25.9 292.5 0L0 0Z" fill="#4d345e"></path><path d="M0 -234C21.4 -232.7 42.9 -231.4 59.2 -220.9C75.5 -210.4 86.6 -190.6 105 -181.9C123.4 -173.1 149 -175.3 165.5 -165.5C181.9 -155.6 189.1 -133.6 198 -114.3C207 -95.1 217.8 -78.6 224.1 -60C230.4 -41.5 232.2 -20.7 234 0L0 0Z" fill="#96446e"></path><path d="M0 -175.5C16.1 -174.5 32.2 -173.5 44.4 -165.7C56.6 -157.8 65 -143 78.7 -136.4C92.5 -129.8 111.8 -131.5 124.1 -124.1C136.4 -116.7 141.8 -100.2 148.5 -85.8C155.3 -71.3 163.3 -59 168.1 -45C172.8 -31.1 174.1 -15.5 175.5 0L0 0Z" fill="#d55e64"></path><path d="M0 -117C10.7 -116.3 21.4 -115.7 29.6 -110.4C37.7 -105.2 43.3 -95.3 52.5 -90.9C61.7 -86.6 74.5 -87.7 82.7 -82.7C90.9 -77.8 94.5 -66.8 99 -57.2C103.5 -47.5 108.9 -39.3 112 -30C115.2 -20.7 116.1 -10.4 117 0L0 0Z" fill="#f88f4a"></path><path d="M0 -58.5C5.4 -58.2 10.7 -57.8 14.8 -55.2C18.9 -52.6 21.7 -47.7 26.2 -45.5C30.8 -43.3 37.3 -43.8 41.4 -41.4C45.5 -38.9 47.3 -33.4 49.5 -28.6C51.8 -23.8 54.4 -19.7 56 -15C57.6 -10.4 58 -5.2 58.5 0L0 0Z" fill="#fbae3c"></path></g></svg>