<svg id="visual" viewBox="0 0 960 540" width="960" height="540" xmlns="http://www.w3.org/2000/svg" xmlns:xlink="http://www.w3.org/1999/xlink" version="1.1"><rect x="0" y="0" width="960" height="540" fill="#001220"></rect><path d="M0 334L22.8 344.3C45.7 354.7 91.3 375.3 137 359.3C182.7 343.3 228.3 290.7 274 282.5C319.7 274.3 365.3 310.7 411.2 314C457 317.3 503 287.7 548.8 283.8C594.7 280 640.3 302 686 310C731.7 318 777.3 312 823 298.5C868.7 285 914.3 264 937.2 253.5L960 243L960 541L937.2 541C914.3 541 868.7 541 823 541C777.3 541 731.7 541 686 541C640.3 541 594.7 541 548.8 541C503 541 457 541 411.2 541C365.3 541 319.7 541 274 541C228.3 541 182.7 541 137 541C91.3 541 45.7 541 22.8 541L0 541Z" fill="#FBAE3C" stroke-linecap="round" stroke-linejoin="miter"></path></svg>